<?xml version="1.0" encoding="UTF-8" standalone="no"?>
<!-- Created with Inkscape (http://www.inkscape.org/) -->

<svg
   width="1584"
   height="396"
   viewBox="0 0 419.09999 104.775"
   version="1.1"
   id="svg1"
   xml:space="preserve"
   inkscape:version="1.4.3 (0d15f75042, 2025-12-25)"
   sodipodi:docname="linkedin-cover.svg"
   inkscape:export-filename="linkedin-cover.png"
   inkscape:export-xdpi="600"
   inkscape:export-ydpi="600"
   xmlns:inkscape="http://www.inkscape.org/namespaces/inkscape"
   xmlns:sodipodi="http://sodipodi.sourceforge.net/DTD/sodipodi-0.dtd"
   xmlns="http://www.w3.org/2000/svg"
   xmlns:svg="http://www.w3.org/2000/svg"><sodipodi:namedview
     id="namedview1"
     pagecolor="#ffffff"
     bordercolor="#000000"
     borderopacity="0.25"
     inkscape:showpageshadow="2"
     inkscape:pageopacity="0.0"
     inkscape:pagecheckerboard="0"
     inkscape:deskcolor="#d1d1d1"
     inkscape:document-units="mm"
     showguides="true"
     inkscape:zoom="0.66446306"
     inkscape:cx="836.76585"
     inkscape:cy="544.0483"
     inkscape:window-width="1920"
     inkscape:window-height="1128"
     inkscape:window-x="0"
     inkscape:window-y="0"
     inkscape:window-maximized="1"
     inkscape:current-layer="layer1"><sodipodi:guide
       position="0,67.774999"
       orientation="0,1"
       id="guide3"
       inkscape:locked="false"
       inkscape:label=""
       inkscape:color="rgb(0,134,229)" /></sodipodi:namedview><defs
     id="defs1"><inkscape:path-effect
       effect="fillet_chamfer"
       id="path-effect8"
       is_visible="true"
       lpeversion="1"
       nodesatellites_param="F,0,0,1,0,0,0,1 @ F,0,0,1,0,13.229166,0,1 @ F,0,0,1,0,0,0,1 @ F,0,0,1,0,0,0,1"
       radius="50"
       unit="px"
       method="auto"
       mode="F"
       chamfer_steps="1"
       flexible="false"
       use_knot_distance="true"
       apply_no_radius="true"
       apply_with_radius="true"
       only_selected="false"
       hide_knots="false" /></defs><g
     inkscape:label="Layer 1"
     inkscape:groupmode="layer"
     id="layer1"><path
       style="fill:#d8dbe2;fill-opacity:1;stroke:none;stroke-width:1.32292"
       d="M 48.766248,0 223.64617,104.775 0,104.775 V 0 Z"
       id="path3"
       sodipodi:nodetypes="ccccc" /><path
       style="fill:#a9bcd0;fill-opacity:1;stroke:none;stroke-width:1.32292"
       d="M 48.766248,0 188.93628,97.234667 A 42.280655,42.280655 17.374345 0 0 213.03533,104.775 H 419.09999 V 0 Z"
       id="path2"
       inkscape:path-effect="#path-effect8"
       inkscape:original-d="M 48.766248,0 199.80616,104.775 H 419.09999 V 0 Z" /><text
       xml:space="preserve"
       style="font-style:normal;font-variant:normal;font-weight:bold;font-stretch:semi-condensed;font-size:14.1111px;font-family:'DejaVu Sans';-inkscape-font-specification:'DejaVu Sans, Bold Semi-Condensed';font-variant-ligatures:normal;font-variant-caps:normal;font-variant-numeric:normal;font-variant-east-asian:normal;writing-mode:lr-tb;direction:ltr;fill:#373f51;fill-opacity:1;stroke:none;stroke-width:1.32292"
       x="147.46707"
       y="37"
       id="text3"><tspan
         id="tspan3"
         style="font-style:normal;font-variant:normal;font-weight:bold;font-stretch:semi-condensed;font-size:14.1111px;font-family:'DejaVu Sans';-inkscape-font-specification:'DejaVu Sans, Bold Semi-Condensed';font-variant-ligatures:normal;font-variant-caps:normal;font-variant-numeric:normal;font-variant-east-asian:normal;fill:#373f51;fill-opacity:1;stroke-width:1.32292"
         x="147.46707"
         y="37"
         sodipodi:role="line">Nicolas Farabegoli</tspan></text><text
       xml:space="preserve"
       style="font-style:normal;font-variant:normal;font-weight:200;font-stretch:normal;font-size:12.7px;font-family:'DejaVu Sans';-inkscape-font-specification:'DejaVu Sans, Ultra-Light';font-variant-ligatures:normal;font-variant-caps:normal;font-variant-numeric:normal;font-variant-east-asian:normal;writing-mode:lr-tb;direction:ltr;fill:#373f51;fill-opacity:1;stroke:none;stroke-width:1.32292"
       x="296.30084"
       y="37.055122"
       id="text4"><tspan
         sodipodi:role="line"
         id="tspan4"
         style="font-style:normal;font-variant:normal;font-weight:200;font-stretch:normal;font-size:12.7px;font-family:'DejaVu Sans';-inkscape-font-specification:'DejaVu Sans, Ultra-Light';font-variant-ligatures:normal;font-variant-caps:normal;font-variant-numeric:normal;font-variant-east-asian:normal;stroke-width:1.32292"
         x="296.30084"
         y="37.055122">Software Engineer</tspan></text><text
       xml:space="preserve"
       style="font-style:normal;font-variant:normal;font-weight:200;font-stretch:normal;font-size:12.7px;font-family:'DejaVu Sans';-inkscape-font-specification:'DejaVu Sans, Ultra-Light';font-variant-ligatures:normal;font-variant-caps:normal;font-variant-numeric:normal;font-variant-east-asian:normal;writing-mode:lr-tb;direction:ltr;fill:#373f51;fill-opacity:1;stroke:none;stroke-width:1.32292"
       x="285.53687"
       y="36.906296"
       id="text5"><tspan
         sodipodi:role="line"
         id="tspan5"
         style="stroke-width:1.32292"
         x="285.53687"
         y="36.906296">|</tspan></text><g
       id="g9"
       transform="translate(3.8830341)"><g
         id="g8"
         transform="translate(65.43837,26.557434)"><g
           style="fill:#373f51;fill-opacity:1"
           id="g5"
           transform="matrix(0.4154072,0,0,0.41540719,210.54835,56.704382)"><g
             id="Vector"
             style="fill:#373f51;fill-opacity:1"><path
               d="m 15.3222,10.383 c 0.0574,0.5627 0.0903,1.1073 0.0903,1.617 0,0.9541 -0.1153,2.0315 -0.2917,3.1208 -1.0893,0.1764 -2.1667,0.2917 -3.1208,0.2917 -0.9498,0 -2.02687,-0.115 -3.12089,-0.292 C 8.70281,14.0312 8.5875,12.954 8.5875,12 c 0,-0.5095 0.03289,-1.0542 0.09039,-1.617 1.14819,0.1838 2.29361,0.3045 3.32211,0.3045 1.0286,0 2.174,-0.1207 3.3222,-0.3045 z"
               fill="#000000"
               id="path1"
               style="fill:#373f51;fill-opacity:1" /><path
               d="m 16.8752,10.0994 c 0.071,0.6585 0.1123,1.2996 0.1123,1.9006 0,0.8769 -0.0878,1.8389 -0.2276,2.8153 1.9826,-0.4137 3.8151,-0.9422 4.7968,-1.2431 0.3172,-0.0972 0.4419,-0.1359 0.6091,-0.2028 C 22.2494,13.336 22.326,13.302 22.4259,13.2543 22.4748,12.843 22.5,12.4244 22.5,12 22.5,10.878 22.324,9.79714 21.9982,8.78346 L 21.9133,8.81017 C 20.8868,9.12245 18.9652,9.6745 16.8752,10.0994 Z"
               fill="#000000"
               id="path2-5"
               style="fill:#373f51;fill-opacity:1" /><path
               d="M 21.4017,7.31948 C 20.3698,7.63221 18.579,8.14039 16.6599,8.53603 16.2178,5.84926 15.443,3.16951 15.0702,1.95598 c 2.772,0.84629 5.0571,2.80869 6.3315,5.3635 z"
               fill="#000000"
               id="path3-0"
               style="fill:#373f51;fill-opacity:1" /><path
               d="M 15.1117,8.82229 C 14.0253,8.99781 12.9513,9.1125 12,9.1125 11.0487,9.1125 9.97477,8.99781 8.88843,8.8223 9.30471,6.28005 10.0478,3.68306 10.4278,2.44333 10.525,2.12606 10.5637,2.00144 10.6306,1.83418 10.664,1.75062 10.698,1.67398 10.7457,1.57414 11.157,1.52518 11.5756,1.5 12,1.5 c 0.4434,0 0.8803,0.02748 1.3093,0.08083 0.0091,0.03481 0.0175,0.06596 0.0258,0.09543 0.0246,0.08707 0.0631,0.20944 0.1277,0.41478 l 0.0068,0.02157 c 0.3239,1.02962 1.1823,3.9014 1.6421,6.70968 z"
               fill="#000000"
               id="path4"
               style="fill:#373f51;fill-opacity:1" /><path
               d="M 7.34004,8.536 C 7.7801,5.86107 8.54986,3.19576 8.92192,1.98181 L 8.92983,1.95597 C 6.15777,2.80225 3.8727,4.76465 2.59835,7.31946 3.63018,7.63219 5.42095,8.14036 7.34004,8.536 Z"
               fill="#000000"
               id="path5"
               style="fill:#373f51;fill-opacity:1" /><path
               d="M 2.00184,8.78345 C 1.67598,9.79714 1.5,10.878 1.5,12 c 0,0.4389 0.02693,0.8715 0.07923,1.2963 l 0.16548,0.0552 0.00132,4e-4 0.00162,6e-4 0.00114,3e-4 c 0.05326,0.0177 1.61426,0.5332 3.66999,1.0447 0.58008,0.1443 1.19429,0.2869 1.82128,0.4176 C 7.10025,13.8388 7.0125,12.8769 7.0125,12 c 0,-0.6012 0.04124,-1.2423 0.11222,-1.9006 C 5.03428,9.67436 3.11218,9.12212 2.08597,8.80989 L 2.07883,8.80771 Z"
               fill="#000000"
               id="path6"
               style="fill:#373f51;fill-opacity:1" /><path
               d="m 12,16.9875 c 0.8769,0 1.8389,-0.0878 2.8153,-0.2276 -0.4137,1.9826 -0.9422,3.8151 -1.2431,4.7967 -0.0972,0.3173 -0.1359,0.4419 -0.2028,0.6092 C 13.336,22.2494 13.302,22.326 13.2543,22.4259 12.843,22.4748 12.4244,22.5 12,22.5 11.5756,22.5 11.157,22.4748 10.7457,22.4259 10.698,22.326 10.664,22.2494 10.6306,22.1658 10.5637,21.9986 10.525,21.8739 10.4278,21.5567 10.1269,20.5751 9.59846,18.7427 9.18478,16.7603 10.1579,16.8996 11.1201,16.9875 12,16.9875 Z"
               fill="#000000"
               id="path7"
               style="fill:#373f51;fill-opacity:1" /><path
               d="M 5.0385,15.9259 C 3.73853,15.6024 2.63135,15.2775 1.95597,15.0702 c 1.01661,3.33 3.64385,5.9572 6.97386,6.9738 L 8.92192,22.0182 C 8.59705,20.9582 7.96897,18.7917 7.52191,16.4784 6.6525,16.3103 5.80722,16.1171 5.0385,15.9259 Z"
               fill="#000000"
               id="path8"
               style="fill:#373f51;fill-opacity:1" /><path
               d="m 22.0182,15.0781 c -1.06,0.3249 -3.2267,0.953 -5.5401,1.4 -0.447,2.3134 -1.0751,4.48 -1.4,5.5401 l -0.0079,0.0258 c 3.33,-1.0166 5.9572,-3.6438 6.9738,-6.9738 z"
               fill="#000000"
               id="path9"
               style="fill:#373f51;fill-opacity:1" /><path
               d="m 1.6103,13.323 c 0.03635,0.0047 0.06598,0.0097 0.07581,0.0119 0.00861,0.0021 0.0221,0.0057 0.02699,0.007 l 0.01081,0.0031 0.00582,0.0018 0.00612,0.0019 0.00513,0.0016 C 1.7381,13.3494 1.67976,13.3348 1.6103,13.323 Z"
               fill="#000000"
               id="path10"
               style="fill:#373f51;fill-opacity:1" /></g></g><text
           xml:space="preserve"
           style="font-style:normal;font-variant:normal;font-weight:200;font-stretch:normal;font-size:12.7px;font-family:'DejaVu Sans';-inkscape-font-specification:'DejaVu Sans, Ultra-Light';font-variant-ligatures:normal;font-variant-caps:normal;font-variant-numeric:normal;font-variant-east-asian:normal;writing-mode:lr-tb;direction:ltr;fill:#373f51;fill-opacity:1;stroke:none;stroke-width:1.32292"
           x="227.66614"
           y="63.830395"
           id="text6"><tspan
             sodipodi:role="line"
             id="tspan6"
             style="font-style:normal;font-variant:normal;font-weight:200;font-stretch:normal;font-size:7.76111px;font-family:'DejaVu Sans';-inkscape-font-specification:'DejaVu Sans, Ultra-Light';font-variant-ligatures:normal;font-variant-caps:normal;font-variant-numeric:normal;font-variant-east-asian:normal;stroke-width:1.32292"
             x="227.66614"
             y="63.830395">nicolasfarabegoli.it</tspan></text></g><g
         id="g7"
         transform="translate(-36.807834,10.054167)"><g
           style="fill:#373f51;fill-opacity:1"
           id="g6"
           transform="matrix(0.46156355,0,0,0.46156356,312.84071,56.150506)"><path
             id="Subtract"
             fill-rule="evenodd"
             clip-rule="evenodd"
             d="M 7,2.75 C 5.38503,2.75 3.92465,3.15363 2.86466,4.1379 1.79462,5.13152 1.25,6.60705 1.25,8.5 v 7 c 0,1.893 0.54462,3.3685 1.61466,4.3621 C 3.92465,20.8464 5.38503,21.25 7,21.25 h 10 c 1.615,0 3.0754,-0.4036 4.1353,-1.3879 C 22.2054,18.8685 22.75,17.393 22.75,15.5 v -7 C 22.75,6.60705 22.2054,5.13152 21.1353,4.1379 20.0754,3.15363 18.615,2.75 17,2.75 Z M 19.2285,8.3623 C 19.5562,8.10904 19.6166,7.63802 19.3633,7.31026 19.1101,6.98249 18.6391,6.9221 18.3113,7.17537 l -5.5471,4.28623 c -0.4501,0.3479 -1.0784,0.3479 -1.5286,0 L 5.6886,7.17537 C 5.36083,6.9221 4.88982,6.98249 4.63655,7.31026 4.38328,7.63802 4.44367,8.10904 4.77144,8.3623 l 5.54706,4.2863 c 0.9904,0.7652 2.3725,0.7652 3.3629,0 z"
             fill="#000000"
             style="fill:#373f51;fill-opacity:1" /></g><text
           xml:space="preserve"
           style="font-style:normal;font-variant:normal;font-weight:200;font-stretch:normal;font-size:7.7611px;font-family:'DejaVu Sans';-inkscape-font-specification:'DejaVu Sans, Ultra-Light';font-variant-ligatures:normal;font-variant-caps:normal;font-variant-numeric:normal;font-variant-east-asian:normal;writing-mode:lr-tb;direction:ltr;fill:#373f51;fill-opacity:1;stroke:none;stroke-width:1.32292"
           x="329.72293"
           y="63.830391"
           id="text7"><tspan
             sodipodi:role="line"
             id="tspan7"
             style="stroke-width:1.32292"
             x="329.72293"
             y="63.830391">nicolas.farabegoli@gmail.com</tspan></text></g></g></g></svg>
